<mxfile host="app.diagrams.net" modified="2024-04-10T22:19:21.602Z" agent="Mozilla/5.0 (Macintosh; Intel Mac OS X 10_15_7) AppleWebKit/537.36 (KHTML, like Gecko) Chrome/123.0.0.0 Safari/537.36" etag="3Rff35WeCsrC-VqO-LPL" version="24.2.3" type="github">
  <diagram name="Page-1" id="_0LYHoV7MTqXf7Symm3O">
    <mxGraphModel dx="2060" dy="1107" grid="1" gridSize="10" guides="1" tooltips="1" connect="1" arrows="1" fold="1" page="1" pageScale="1" pageWidth="850" pageHeight="1100" math="0" shadow="0">
      <root>
        <mxCell id="0" />
        <mxCell id="1" parent="0" />
        <mxCell id="UjEVzqPDH5rAxYVWuKjc-4" value="" style="group" vertex="1" connectable="0" parent="1">
          <mxGeometry x="80" y="80" width="700" height="840" as="geometry" />
        </mxCell>
        <mxCell id="UjEVzqPDH5rAxYVWuKjc-1" value="Private VPC&lt;div&gt;&lt;br&gt;&lt;/div&gt;" style="sketch=0;outlineConnect=0;gradientColor=none;html=1;whiteSpace=wrap;fontSize=12;fontStyle=0;shape=mxgraph.aws4.group;grIcon=mxgraph.aws4.group_vpc;strokeColor=#879196;fillColor=none;verticalAlign=top;align=left;spacingLeft=30;fontColor=#879196;dashed=0;" vertex="1" parent="UjEVzqPDH5rAxYVWuKjc-4">
          <mxGeometry x="45" y="40" width="600" height="740" as="geometry" />
        </mxCell>
        <mxCell id="UjEVzqPDH5rAxYVWuKjc-2" value="AWS Cloud" style="sketch=0;outlineConnect=0;gradientColor=none;html=1;whiteSpace=wrap;fontSize=12;fontStyle=0;shape=mxgraph.aws4.group;grIcon=mxgraph.aws4.group_aws_cloud;strokeColor=#B3B3B3;fillColor=none;verticalAlign=top;align=left;spacingLeft=30;fontColor=#AAB7B8;dashed=0;" vertex="1" parent="UjEVzqPDH5rAxYVWuKjc-4">
          <mxGeometry width="700" height="840" as="geometry" />
        </mxCell>
      </root>
    </mxGraphModel>
  </diagram>
</mxfile>
